<?xml version="1.0" encoding="UTF-8"?>
<svg id="Calque_1" data-name="Calque 1" xmlns="http://www.w3.org/2000/svg" viewBox="0 0 100 100">
  <defs>
    <style>
      .cls-1 {
        fill: #000;
        stroke-width: 0px;
      }
    </style>
  </defs>
  <path class="cls-1" d="M55.64,3.2l5.53-5.53h0s.69-.69.69-.69c2.54-2.54,2.54-6.68,0-9.23-1.5-1.5-3.94-1.5-5.44,0l-2.69,2.69c-1.99-.3-4.09.3-5.61,1.83l-4.93,4.93c-2.08,2.08-2.04,4.13-1.96,7.85.01.72.03,1.54.03,2.43l-.73.73c0-2.23-.01-4.48-.01-4.5,0-.34-.28-.62-.62-.61s-.62.28-.61.62c0,.03.01,3.18.02,5.73l-1.78,1.78h0s-1.09,1.09-1.09,1.09c-.24.24-.24.63,0,.87s.63.24.87,0l.91-.91c.91,0,1.88,0,2.77,0,.34,0,.62-.27.62-.62,0-.34-.28-.62-.62-.62-.49,0-1.02,0-1.54,0l.73-.73c2.55,0,5.7.02,5.73.02.34,0,.62-.27.62-.61,0-.34-.27-.62-.61-.62-.03,0-2.27-.01-4.5-.01l.73-.73c.89,0,1.71.02,2.43.03,3.72.07,5.77.12,7.85-1.96l3.23-3.23s0,0,0,0ZM60.99-3.9l-.51.51h-2.83c-.34,0-.62.28-.62.62,0,.17.07.33.18.44s.27.18.44.18h1.59s-4.29,4.29-4.29,4.29h-6.6l4.29-4.29h2.83c.34,0,.62-.28.62-.62,0-.34-.28-.62-.62-.62h-1.59s7.53-7.53,7.53-7.53c1.64,2.07,1.5,5.1-.41,7.02ZM57.29-11.38c.87-.87,2.2-1,3.21-.38l-3.62,3.62c-.54-.45-1.15-.8-1.78-1.05l2.19-2.19ZM44.06-1.93l4.93-4.93c1.91-1.91,4.94-2.05,7.02-.41l-4.06,4.06h0s-5.53,5.53-5.53,5.53h0s-3.93,3.93-3.93,3.93c0-.44-.01-.85-.02-1.23-.07-3.6-.11-5.24,1.6-6.95ZM44.59,7.15c-.39,0-.8-.02-1.23-.02l3.75-3.75h6.6s-2.17,2.17-2.17,2.17c-1.71,1.71-3.35,1.67-6.95,1.6Z"/>
  <path class="cls-1" d="M55.64,103.2l5.53-5.53h0s.69-.69.69-.69c2.54-2.54,2.54-6.68,0-9.23-1.5-1.5-3.94-1.5-5.44,0l-2.69,2.69c-1.99-.3-4.09.3-5.61,1.83l-4.93,4.93c-2.08,2.08-2.04,4.13-1.96,7.85.01.72.03,1.54.03,2.43l-.73.73c0-2.23-.01-4.48-.01-4.5,0-.34-.28-.62-.62-.61s-.62.28-.61.62c0,.03.01,3.18.02,5.73l-1.78,1.78h0s-1.09,1.09-1.09,1.09c-.24.24-.24.63,0,.87s.63.24.87,0l.91-.91c.91,0,1.88,0,2.77,0,.34,0,.62-.27.62-.62,0-.34-.28-.62-.62-.62-.49,0-1.02,0-1.54,0l.73-.73c2.55,0,5.7.02,5.73.02.34,0,.62-.27.62-.61,0-.34-.27-.62-.61-.62-.03,0-2.27-.01-4.5-.01l.73-.73c.89,0,1.71.02,2.43.03,3.72.07,5.77.12,7.85-1.96l3.23-3.23s0,0,0,0ZM60.99,96.1l-.51.51h-2.83c-.34,0-.62.28-.62.62,0,.17.07.33.18.44s.27.18.44.18h1.59s-4.29,4.29-4.29,4.29h-6.6l4.29-4.29h2.83c.34,0,.62-.28.62-.62,0-.34-.28-.62-.62-.62h-1.59s7.53-7.53,7.53-7.53c1.64,2.07,1.5,5.1-.41,7.02ZM57.29,88.62c.87-.87,2.2-1,3.21-.38l-3.62,3.62c-.54-.45-1.15-.8-1.78-1.05l2.19-2.19ZM44.06,98.07l4.93-4.93c1.91-1.91,4.94-2.05,7.02-.41l-4.06,4.06h0s-5.53,5.53-5.53,5.53h0s-3.93,3.93-3.93,3.93c0-.44-.01-.85-.02-1.23-.07-3.6-.11-5.24,1.6-6.95ZM44.59,107.15c-.39,0-.8-.02-1.23-.02l3.75-3.75h6.6s-2.17,2.17-2.17,2.17c-1.71,1.71-3.35,1.67-6.95,1.6Z"/>
  <path class="cls-1" d="M105.64,53.2l5.53-5.53h0s.69-.69.69-.69c2.54-2.54,2.54-6.68,0-9.23-1.5-1.5-3.94-1.5-5.44,0l-2.69,2.69c-1.99-.3-4.09.3-5.61,1.83l-4.93,4.93c-2.08,2.08-2.04,4.13-1.96,7.85.01.72.03,1.54.03,2.43l-.73.73c0-2.23-.01-4.48-.01-4.5,0-.34-.28-.62-.62-.61s-.62.28-.61.62c0,.03.01,3.18.02,5.73l-1.78,1.78h0s-1.09,1.09-1.09,1.09c-.24.24-.24.63,0,.87s.63.24.87,0l.91-.91c.91,0,1.88,0,2.77,0,.34,0,.62-.27.62-.62,0-.34-.28-.62-.62-.62-.49,0-1.02,0-1.54,0l.73-.73c2.55,0,5.7.02,5.73.02.34,0,.62-.27.62-.61,0-.34-.27-.62-.61-.62-.03,0-2.27-.01-4.5-.01l.73-.73c.89,0,1.71.02,2.43.03,3.72.07,5.77.12,7.85-1.96l3.23-3.23s0,0,0,0ZM110.99,46.1l-.51.51h-2.83c-.34,0-.62.28-.62.62,0,.17.07.33.18.44s.27.18.44.18h1.59s-4.29,4.29-4.29,4.29h-6.6l4.29-4.29h2.83c.34,0,.62-.28.62-.62,0-.34-.28-.62-.62-.62h-1.59s7.53-7.53,7.53-7.53c1.64,2.07,1.5,5.1-.41,7.02ZM107.29,38.62c.87-.87,2.2-1,3.21-.38l-3.62,3.62c-.54-.45-1.15-.8-1.78-1.05l2.19-2.19ZM94.06,48.07l4.93-4.93c1.91-1.91,4.94-2.05,7.02-.41l-4.06,4.06h0s-5.53,5.53-5.53,5.53h0s-3.93,3.93-3.93,3.93c0-.44-.01-.85-.02-1.23-.07-3.6-.11-5.24,1.6-6.95ZM94.59,57.15c-.39,0-.8-.02-1.23-.02l3.75-3.75h6.6s-2.17,2.17-2.17,2.17c-1.71,1.71-3.35,1.67-6.95,1.6Z"/>
  <path class="cls-1" d="M5.64,53.2l5.53-5.53h0s.69-.69.69-.69c2.54-2.54,2.54-6.68,0-9.23-1.5-1.5-3.94-1.5-5.44,0l-2.69,2.69c-1.99-.3-4.09.3-5.61,1.83l-4.93,4.93c-2.08,2.08-2.04,4.13-1.96,7.85.01.72.03,1.54.03,2.43l-.73.73c0-2.23-.01-4.48-.01-4.5,0-.34-.28-.62-.62-.61s-.62.28-.61.62c0,.03.01,3.18.02,5.73l-1.78,1.78h0s-1.09,1.09-1.09,1.09c-.24.24-.24.63,0,.87s.63.24.87,0l.91-.91c.91,0,1.88,0,2.77,0,.34,0,.62-.27.62-.62,0-.34-.28-.62-.62-.62-.49,0-1.02,0-1.54,0l.73-.73c2.55,0,5.7.02,5.73.02.34,0,.62-.27.62-.61,0-.34-.27-.62-.61-.62-.03,0-2.27-.01-4.5-.01l.73-.73c.89,0,1.71.02,2.43.03,3.72.07,5.77.12,7.85-1.96l3.23-3.23s0,0,0,0ZM10.99,46.1l-.51.51h-2.83c-.34,0-.62.28-.62.62,0,.17.07.33.18.44s.27.18.44.18h1.59s-4.29,4.29-4.29,4.29H-1.66l4.29-4.29h2.83c.34,0,.62-.28.62-.62,0-.34-.28-.62-.62-.62h-1.59s7.53-7.53,7.53-7.53c1.64,2.07,1.5,5.1-.41,7.02ZM7.29,38.62c.87-.87,2.2-1,3.21-.38l-3.62,3.62c-.54-.45-1.15-.8-1.78-1.05l2.19-2.19ZM-5.94,48.07l4.93-4.93c1.91-1.91,4.94-2.05,7.02-.41l-4.06,4.06h0s-5.53,5.53-5.53,5.53h0s-3.93,3.93-3.93,3.93c0-.44-.01-.85-.02-1.23-.07-3.6-.11-5.24,1.6-6.95ZM-5.41,57.15c-.39,0-.8-.02-1.23-.02l3.75-3.75H3.71s-2.17,2.17-2.17,2.17c-1.71,1.71-3.35,1.67-6.95,1.6Z"/>
</svg>