<svg id="visual" viewBox="0 0 900 600" width="900" height="600" xmlns="http://www.w3.org/2000/svg" xmlns:xlink="http://www.w3.org/1999/xlink" version="1.1"><path d="M422 600L602 600L602 500L701 500L701 400L323 400L323 300L485 300L485 200L656 200L656 100L503 100L503 0L900 0L900 100L900 100L900 200L900 200L900 300L900 300L900 400L900 400L900 500L900 500L900 600L900 600Z" fill="#f3e9d4"></path><path d="M197 600L71 600L71 500L368 500L368 400L161 400L161 300L215 300L215 200L107 200L107 100L368 100L368 0L504 0L504 100L657 100L657 200L486 200L486 300L324 300L324 400L702 400L702 500L603 500L603 600L423 600Z" fill="#e6d7bb"></path><path d="M0 600L0 600L0 500L0 500L0 400L0 400L0 300L0 300L0 200L0 200L0 100L0 100L0 0L369 0L369 100L108 100L108 200L216 200L216 300L162 300L162 400L369 400L369 500L72 500L72 600L198 600Z" fill="#d9c6a3"></path></svg>